<?xml version="1.0" encoding="UTF-8" standalone="no"?><svg xmlns="http://www.w3.org/2000/svg" xmlns:xlink="http://www.w3.org/1999/xlink" contentScriptType="application/ecmascript" contentStyleType="text/css" height="94.3912px" preserveAspectRatio="none" style="width:741px;height:94px;" version="1.1" viewBox="0 0 741 94" width="741.7921px" zoomAndPan="magnify"><defs><linearGradient id="gwjtz3zh13uz80" x1="0%" x2="100%" y1="0%" y2="100%"><stop offset="0%" stop-color="#F5DEB3"/><stop offset="100%" stop-color="#B0E0E6"/></linearGradient><filter height="300%" id="fwjtz3zh13uz8" width="300%" x="-1" y="-1"><feGaussianBlur result="blurOut" stdDeviation="2.0519835841313268"/><feColorMatrix in="blurOut" result="blurOut2" type="matrix" values="0 0 0 0 0 0 0 0 0 0 0 0 0 0 0 0 0 0 .4 0"/><feOffset dx="4.1039671682626535" dy="4.1039671682626535" in="blurOut2" result="blurOut3"/><feBlend in="SourceGraphic" in2="blurOut3" mode="normal"/></filter></defs><g><!--class Landscape--><rect fill="url(#gwjtz3zh13uz80)" filter="url(#fwjtz3zh13uz8)" height="75.8593" id="Landscape" style="stroke: #A80036; stroke-width: 1.5389876880984952;" width="154.9248" x="6.156" y="8.2079"/><ellipse cx="37.6026" cy="23.5978" fill="#DA70D6" rx="10.2599" ry="10.2599" style="stroke: #A80036; stroke-width: 1.0259917920656634;"/><path d="M34.8452,28.2148 L34.8452,19.2373 L36.6247,19.2373 L36.6247,26.6437 L40.4241,26.6437 L40.4241,28.2148 L34.8452,28.2148 Z "/><text fill="#000000" font-family="sans-serif" font-size="16.4159" lengthAdjust="spacingAndGlyphs" textLength="86.1833" x="54.7367" y="29.2808">Landscape</text><line style="stroke: #A80036; stroke-width: 1.5389876880984952;" x1="7.1819" x2="160.0547" y1="38.9877" y2="38.9877"/><text fill="#000000" font-family="sans-serif" font-size="12.3119" lengthAdjust="spacingAndGlyphs" textLength="56.4295" x="12.3119" y="54.5198">Workflow</text><line style="stroke: #A80036; stroke-width: 1.5389876880984952;" x1="7.1819" x2="160.0547" y1="61.5274" y2="61.5274"/><text fill="#000000" font-family="sans-serif" font-size="12.3119" lengthAdjust="spacingAndGlyphs" textLength="142.6129" x="12.3119" y="77.0596">Playbook of playbooks</text><!--class Type--><rect fill="url(#gwjtz3zh13uz80)" filter="url(#fwjtz3zh13uz8)" height="75.8593" id="Type" style="stroke: #A80036; stroke-width: 1.5389876880984952;" width="153.8988" x="197.5034" y="8.2079"/><ellipse cx="251.368" cy="23.5978" fill="#FFA500" rx="10.2599" ry="10.2599" style="stroke: #A80036; stroke-width: 1.0259917920656634;"/><path d="M251.865,28.4713 L250.0855,28.4713 L250.0855,21.0489 L247.8091,21.0489 L247.8091,19.4938 L254.1414,19.4938 L254.1414,21.0489 L251.865,21.0489 L251.865,28.4713 Z "/><text fill="#000000" font-family="sans-serif" font-size="16.4159" lengthAdjust="spacingAndGlyphs" textLength="37.9617" x="270.8618" y="29.2808">Type</text><line style="stroke: #A80036; stroke-width: 1.5389876880984952;" x1="198.5294" x2="350.3762" y1="38.9877" y2="38.9877"/><text fill="#000000" font-family="sans-serif" font-size="12.3119" lengthAdjust="spacingAndGlyphs" textLength="57.4555" x="203.6594" y="54.5198">Playbook</text><line style="stroke: #A80036; stroke-width: 1.5389876880984952;" x1="198.5294" x2="350.3762" y1="61.5274" y2="61.5274"/><text fill="#000000" font-family="sans-serif" font-size="12.3119" lengthAdjust="spacingAndGlyphs" textLength="6.156" x="203.6594" y="77.0596">_</text><!--class Function--><rect fill="url(#gwjtz3zh13uz80)" filter="url(#fwjtz3zh13uz8)" height="75.8593" id="Function" style="stroke: #A80036; stroke-width: 1.5389876880984952;" width="153.8988" x="387.3119" y="8.2079"/><ellipse cx="426.1457" cy="23.5978" fill="#FFFF00" rx="10.2599" ry="10.2599" style="stroke: #A80036; stroke-width: 1.0259917920656634;"/><path d="M428.7267,20.8084 L424.9113,20.8084 L424.9113,22.7321 L428.39,22.7321 L428.39,24.3032 L424.9113,24.3032 L424.9113,28.2148 L423.1318,28.2148 L423.1318,19.2373 L428.7267,19.2373 L428.7267,20.8084 Z "/><text fill="#000000" font-family="sans-serif" font-size="16.4159" lengthAdjust="spacingAndGlyphs" textLength="68.7415" x="444.9213" y="29.2808">Function</text><line style="stroke: #A80036; stroke-width: 1.5389876880984952;" x1="388.3379" x2="540.1847" y1="38.9877" y2="38.9877"/><text fill="#000000" font-family="sans-serif" font-size="12.3119" lengthAdjust="spacingAndGlyphs" textLength="27.7018" x="393.4679" y="54.5198">Role</text><line style="stroke: #A80036; stroke-width: 1.5389876880984952;" x1="388.3379" x2="540.1847" y1="61.5274" y2="61.5274"/><text fill="#000000" font-family="sans-serif" font-size="12.3119" lengthAdjust="spacingAndGlyphs" textLength="6.156" x="393.4679" y="77.0596">_</text><!--class Component--><rect fill="url(#gwjtz3zh13uz80)" filter="url(#fwjtz3zh13uz8)" height="75.8593" id="Component" style="stroke: #A80036; stroke-width: 1.5389876880984952;" width="153.8988" x="577.1204" y="8.2079"/><ellipse cx="604.8735" cy="23.5978" fill="#ADD1B2" rx="10.2599" ry="10.2599" style="stroke: #A80036; stroke-width: 1.0259917920656634;"/><path d="M606.7491,27.9583 Q606.3323,28.1667 605.8674,28.2789 Q605.4025,28.3911 604.9055,28.3911 Q603.078,28.3911 602.1161,27.2048 Q601.1703,26.0025 601.1703,23.7421 Q601.1703,21.4657 602.1161,20.2794 Q603.078,19.077 604.9055,19.077 Q605.4025,19.077 605.8674,19.1893 Q606.3483,19.2854 606.7491,19.5099 L606.7491,21.4817 Q606.3002,21.0649 605.8674,20.8725 Q605.4346,20.6641 604.9857,20.6641 Q604.0078,20.6641 603.5108,21.4496 Q603.0139,22.2191 603.0139,23.7421 Q603.0139,25.249 603.5108,26.0185 Q604.0078,26.788 604.9857,26.788 Q605.4346,26.788 605.8674,26.5956 Q606.3002,26.4033 606.7491,25.9864 L606.7491,27.9583 Z "/><text fill="#000000" font-family="sans-serif" font-size="16.4159" lengthAdjust="spacingAndGlyphs" textLength="93.3653" x="621.1867" y="29.2808">Component</text><line style="stroke: #A80036; stroke-width: 1.5389876880984952;" x1="578.1464" x2="729.9932" y1="38.9877" y2="38.9877"/><text fill="#000000" font-family="sans-serif" font-size="12.3119" lengthAdjust="spacingAndGlyphs" textLength="52.3256" x="583.2763" y="54.5198">Task file</text><line style="stroke: #A80036; stroke-width: 1.5389876880984952;" x1="578.1464" x2="729.9932" y1="61.5274" y2="61.5274"/><text fill="#000000" font-family="sans-serif" font-size="12.3119" lengthAdjust="spacingAndGlyphs" textLength="27.7018" x="583.2763" y="77.0596">Role</text><!--link Landscape to Type--><path d="M174.7572,46.1696 C182.3187,46.1696 189.8803,46.1696 197.4419,46.1696 " fill="none" id="Landscape-Type" style="stroke: #A80036; stroke-width: 1.0259917920656634;"/><polygon fill="#A80036" points="161.1423,46.1696,167.2982,50.2736,173.4542,46.1696,167.2982,42.0657,161.1423,46.1696" style="stroke: #A80036; stroke-width: 1.0259917920656634;"/><!--link Type to Function--><path d="M364.935,46.1696 C372.3632,46.1696 379.7914,46.1696 387.2196,46.1696 " fill="none" id="Type-Function" style="stroke: #A80036; stroke-width: 1.0259917920656634;"/><polygon fill="#A80036" points="351.5663,46.1696,357.7223,50.2736,363.8782,46.1696,357.7223,42.0657,351.5663,46.1696" style="stroke: #A80036; stroke-width: 1.0259917920656634;"/><!--link Function to Component--><path d="M554.7435,46.1696 C562.1717,46.1696 569.5999,46.1696 577.028,46.1696 " fill="none" id="Function-Component" style="stroke: #A80036; stroke-width: 1.0259917920656634;"/><polygon fill="#A80036" points="541.3748,46.1696,547.5308,50.2736,553.6867,46.1696,547.5308,42.0657,541.3748,46.1696" style="stroke: #A80036; stroke-width: 1.0259917920656634;"/><!--
@startuml
Landscape *- Type
Type *- Function
Function *- Component
class Landscape << (L,orchid) >> {
	{field} Workflow
	{method} Playbook of playbooks
}
class Type << (T,orange) >> {
	Playbook
	{method} _
}
class Function << (F,yellow) >> {
	Role
	{method} _
}
class Component {
	{field} Task file
	{method} Role
}
hide empty members
scale 750 width
skinparam classBackgroundColor Wheat/PowderBlue
skinparam minClassWidth 150
skinparam classFontSize 16
skinparam defaultFontSize 12
@enduml

PlantUML version 1.2019.01(Sat Feb 09 16:32:04 CET 2019)
(LGPL source distribution)
Java Runtime: OpenJDK Runtime Environment
JVM: OpenJDK 64-Bit Server VM
Java Version: 11.0.10+9
Operating System: Linux
OS Version: 5.12.0-0.rc3.20210319git8b12a62a4e3e.172.fc35.x86_64
Default Encoding: UTF-8
Language: en
Country: IE
--></g></svg>