<svg xmlns="http://www.w3.org/2000/svg" xmlns:xlink="http://www.w3.org/1999/xlink" contentStyleType="text/css" data-diagram-type="CLASS" height="96.2343px" preserveAspectRatio="none" style="width:751px;height:96px;background:#FFFFFF;" version="1.1" viewBox="0 0 751 96" width="751.046px" zoomAndPan="magnify"><defs><linearGradient id="gt5w2qha1qldj0" x1="0%" x2="100%" y1="0%" y2="100%"><stop offset="0%" stop-color="#F5DEB3"/><stop offset="100%" stop-color="#B0E0E6"/></linearGradient></defs><g><!--class Landscape--><g class="entity" data-entity="Landscape" data-source-line="1" data-uid="ent0002" id="entity_Landscape"><rect fill="url(#gt5w2qha1qldj0)" height="82.3099" rx="2.6151" ry="2.6151" style="stroke:#181818;stroke-width:0.523;" width="156.9038" x="7.3222" y="7.3222"/><rect fill="url(#gt5w2qha1qldj0)" height="31.3808" rx="2.6151" ry="2.6151" style="stroke:url(#gt5w2qha1qldj0);stroke-width:0.523;" width="156.9038" x="7.3222" y="7.3222"/><rect fill="url(#gt5w2qha1qldj0)" height="2.6151" style="stroke:url(#gt5w2qha1qldj0);stroke-width:0.523;" width="156.9038" x="7.3222" y="36.0879"/><rect fill="none" height="82.3099" rx="2.6151" ry="2.6151" style="stroke:#181818;stroke-width:0.523;" width="156.9038" x="7.3222" y="7.3222"/><ellipse cx="50.113" cy="23.0126" fill="#DA70D6" rx="10.4603" ry="10.4603" style="stroke:#181818;stroke-width:1.046;"/><path d="M49.7207,20.8878 L50.3745,20.8878 C50.6687,20.8878 50.8158,20.8551 50.9302,20.8061 C51.1263,20.6753 51.2571,20.4629 51.2571,20.234 C51.2571,20.0379 51.159,19.8418 50.9792,19.7274 C50.8485,19.613 50.7341,19.5966 50.3745,19.5966 L47.6941,19.5966 C47.3508,19.5966 47.2691,19.613 47.1384,19.6783 C46.9422,19.8091 46.8115,20.0052 46.8115,20.234 C46.8115,20.4465 46.9095,20.6427 47.0893,20.7571 C47.2364,20.8551 47.3672,20.8878 47.6941,20.8878 L48.3642,20.8878 L48.3642,25.3825 L47.6941,25.3825 C47.3672,25.3825 47.2691,25.3988 47.1384,25.4642 C46.9422,25.5949 46.8115,25.7911 46.8115,26.0199 C46.8115,26.4612 47.122,26.6736 47.6941,26.6736 L53.676,26.6736 L53.676,24.3201 C53.676,24.0095 53.6433,23.8951 53.5616,23.7807 C53.4472,23.5846 53.2347,23.4702 52.9896,23.4702 C52.7607,23.4702 52.581,23.5683 52.4339,23.7317 C52.3358,23.8788 52.3194,23.9932 52.3194,24.3201 L52.3194,25.3825 L49.7207,25.3825 L49.7207,20.8878 Z " fill="#000000"/><text fill="#000000" font-family="sans-serif" font-size="12.5523" lengthAdjust="spacing" textLength="62.9753" x="69.9661" y="27.8829">Landscape</text><line style="stroke:#181818;stroke-width:0.523;" x1="8.3682" x2="163.1799" y1="38.7029" y2="38.7029"/><text fill="#000000" font-family="sans-serif" font-size="12.5523" lengthAdjust="spacing" textLength="56.172" x="13.5983" y="56.3055">Workflow</text><line style="stroke:#181818;stroke-width:0.523;" x1="8.3682" x2="163.1799" y1="64.1675" y2="64.1675"/><text fill="#000000" font-family="sans-serif" font-size="12.5523" lengthAdjust="spacing" textLength="132.3524" x="13.5983" y="81.7701">Playbook of playbooks</text></g><!--class Type--><g class="entity" data-entity="Type" data-source-line="1" data-uid="ent0003" id="entity_Type"><rect fill="url(#gt5w2qha1qldj0)" height="82.3099" rx="2.6151" ry="2.6151" style="stroke:#181818;stroke-width:0.523;" width="156.9038" x="200.8368" y="7.3222"/><rect fill="url(#gt5w2qha1qldj0)" height="31.3808" rx="2.6151" ry="2.6151" style="stroke:url(#gt5w2qha1qldj0);stroke-width:0.523;" width="156.9038" x="200.8368" y="7.3222"/><rect fill="url(#gt5w2qha1qldj0)" height="2.6151" style="stroke:url(#gt5w2qha1qldj0);stroke-width:0.523;" width="156.9038" x="200.8368" y="36.0879"/><rect fill="none" height="82.3099" rx="2.6151" ry="2.6151" style="stroke:#181818;stroke-width:0.523;" width="156.9038" x="200.8368" y="7.3222"/><ellipse cx="261.0145" cy="23.0126" fill="#FFA500" rx="10.4603" ry="10.4603" style="stroke:#181818;stroke-width:1.046;"/><path d="M261.7827,21.4108 L263.0576,21.4108 L263.0576,22.4569 C263.0576,22.7674 263.0739,22.8981 263.1556,22.9962 C263.27,23.2087 263.4989,23.3231 263.7277,23.3231 C263.9401,23.3231 264.1363,23.225 264.2834,23.0616 C264.3814,22.9145 264.4141,22.8164 264.4141,22.4569 L264.4141,20.1196 L257.8274,20.1196 L257.8274,22.4569 C257.8274,22.7674 257.8601,22.8981 257.9255,22.9962 C258.0563,23.2087 258.2851,23.3231 258.5139,23.3231 C258.7264,23.3231 258.9225,23.225 259.0533,23.0616 C259.1677,22.9145 259.184,22.8164 259.184,22.4569 L259.184,21.4108 L260.4262,21.4108 L260.4262,25.9055 L259.658,25.9055 C259.3311,25.9055 259.233,25.9218 259.1186,25.9872 C258.9062,26.1179 258.7917,26.3304 258.7917,26.5429 C258.7917,26.739 258.8898,26.9515 259.0533,27.0659 C259.184,27.164 259.3801,27.1967 259.658,27.1967 L262.5672,27.1967 C263.1393,27.1967 263.4335,26.9842 263.4335,26.5429 C263.4335,26.3468 263.3354,26.1506 263.172,26.0362 C263.0249,25.9218 262.8941,25.9055 262.5672,25.9055 L261.7827,25.9055 L261.7827,21.4108 Z " fill="#000000"/><text fill="#000000" font-family="sans-serif" font-size="12.5523" lengthAdjust="spacing" textLength="28.1801" x="280.889" y="27.8829">Type</text><line style="stroke:#181818;stroke-width:0.523;" x1="201.8828" x2="356.6946" y1="38.7029" y2="38.7029"/><text fill="#000000" font-family="sans-serif" font-size="12.5523" lengthAdjust="spacing" textLength="53.8874" x="207.113" y="56.3055">Playbook</text><line style="stroke:#181818;stroke-width:0.523;" x1="201.8828" x2="356.6946" y1="64.1675" y2="64.1675"/><text fill="#000000" font-family="sans-serif" font-size="12.5523" lengthAdjust="spacing" textLength="5.5733" x="207.113" y="81.7701">_</text></g><!--class Function--><g class="entity" data-entity="Function" data-source-line="2" data-uid="ent0005" id="entity_Function"><rect fill="url(#gt5w2qha1qldj0)" height="82.3099" rx="2.6151" ry="2.6151" style="stroke:#181818;stroke-width:0.523;" width="156.9038" x="394.3515" y="7.3222"/><rect fill="url(#gt5w2qha1qldj0)" height="31.3808" rx="2.6151" ry="2.6151" style="stroke:url(#gt5w2qha1qldj0);stroke-width:0.523;" width="156.9038" x="394.3515" y="7.3222"/><rect fill="url(#gt5w2qha1qldj0)" height="2.6151" style="stroke:url(#gt5w2qha1qldj0);stroke-width:0.523;" width="156.9038" x="394.3515" y="36.0879"/><rect fill="none" height="82.3099" rx="2.6151" ry="2.6151" style="stroke:#181818;stroke-width:0.523;" width="156.9038" x="394.3515" y="7.3222"/><ellipse cx="443.0312" cy="23.0126" fill="#FFFF00" rx="10.4603" ry="10.4603" style="stroke:#181818;stroke-width:1.046;"/><path d="M441.8544,23.7644 L442.8187,23.7644 L442.8187,23.7971 C442.8187,24.0913 442.8514,24.222 442.9168,24.3364 C443.0312,24.5326 443.26,24.647 443.4888,24.647 C443.7013,24.647 443.8974,24.5489 444.0445,24.3855 C444.1426,24.2547 444.159,24.1403 444.159,23.7971 L444.159,22.4569 C444.159,22.1463 444.159,22.0482 444.0609,21.9175 C443.9465,21.7214 443.7177,21.607 443.4888,21.607 C443.2764,21.607 443.0802,21.705 442.9495,21.8685 C442.8514,21.9992 442.8187,22.13 442.8187,22.4569 L442.8187,22.4732 L441.8544,22.4732 L441.8544,20.8878 L444.9762,20.8878 L444.9762,21.4599 C444.9762,21.7377 444.9925,21.8685 445.0742,21.9829 C445.1886,22.179 445.4011,22.2934 445.6463,22.2934 C445.8587,22.2934 446.0549,22.1953 446.202,22.0319 C446.3,21.8848 446.3164,21.7704 446.3164,21.4599 L446.3164,19.5966 L440.3671,19.5966 C440.0402,19.5966 439.9422,19.613 439.8114,19.6783 C439.6153,19.8091 439.4845,20.0216 439.4845,20.234 C439.4845,20.4465 439.5989,20.6427 439.7624,20.7571 C439.8931,20.8551 440.0402,20.8878 440.3671,20.8878 L440.4979,20.8878 L440.4979,25.3825 L440.3671,25.3825 C440.0402,25.3825 439.9422,25.3988 439.8114,25.4642 C439.6153,25.5949 439.4845,25.8074 439.4845,26.0199 C439.4845,26.4448 439.7787,26.6736 440.3671,26.6736 L443.0639,26.6736 C443.6359,26.6736 443.9465,26.4612 443.9465,26.0199 C443.9465,25.8237 443.8321,25.6276 443.6686,25.5132 C443.5215,25.3988 443.4071,25.3825 443.0639,25.3825 L441.8544,25.3825 L441.8544,23.7644 Z " fill="#000000"/><text fill="#000000" font-family="sans-serif" font-size="12.5523" lengthAdjust="spacing" textLength="51.1761" x="462.9057" y="27.8829">Function</text><line style="stroke:#181818;stroke-width:0.523;" x1="395.3975" x2="550.2092" y1="38.7029" y2="38.7029"/><text fill="#000000" font-family="sans-serif" font-size="12.5523" lengthAdjust="spacing" textLength="25.7199" x="400.6276" y="56.3055">Role</text><line style="stroke:#181818;stroke-width:0.523;" x1="395.3975" x2="550.2092" y1="64.1675" y2="64.1675"/><text fill="#000000" font-family="sans-serif" font-size="12.5523" lengthAdjust="spacing" textLength="5.5733" x="400.6276" y="81.7701">_</text></g><!--class Component--><g class="entity" data-entity="Component" data-source-line="3" data-uid="ent0007" id="entity_Component"><rect fill="url(#gt5w2qha1qldj0)" height="82.3099" rx="2.6151" ry="2.6151" style="stroke:#181818;stroke-width:0.523;" width="156.9038" x="587.8661" y="7.3222"/><rect fill="url(#gt5w2qha1qldj0)" height="31.3808" rx="2.6151" ry="2.6151" style="stroke:url(#gt5w2qha1qldj0);stroke-width:0.523;" width="156.9038" x="587.8661" y="7.3222"/><rect fill="url(#gt5w2qha1qldj0)" height="2.6151" style="stroke:url(#gt5w2qha1qldj0);stroke-width:0.523;" width="156.9038" x="587.8661" y="36.0879"/><rect fill="none" height="82.3099" rx="2.6151" ry="2.6151" style="stroke:#181818;stroke-width:0.523;" width="156.9038" x="587.8661" y="7.3222"/><ellipse cx="627.6293" cy="23.0126" fill="#ADD1B2" rx="10.4603" ry="10.4603" style="stroke:#181818;stroke-width:1.046;"/><path d="M623.8047,23.9115 C623.8047,25.7584 625.3901,27.0986 627.5476,27.0986 C628.4628,27.0986 629.3291,26.8698 629.8848,26.4939 C630.3424,26.1833 630.5712,25.8728 630.5712,25.5786 C630.5712,25.2354 630.2607,24.9248 629.9011,24.9248 C629.7213,24.9248 629.5579,24.9902 629.4108,25.1373 C629.0839,25.4478 629.0839,25.4478 628.9532,25.5296 C628.6263,25.7093 628.1523,25.8074 627.5802,25.8074 C626.1093,25.8074 625.1613,25.0556 625.1613,23.8788 L625.1613,23.127 C625.1613,21.8685 626.0766,20.9695 627.3187,20.9695 C627.7437,20.9695 628.185,21.0676 628.5119,21.2637 C628.8714,21.4435 628.9858,21.5906 629.0512,21.8685 C629.1329,22.3588 629.3127,22.5386 629.705,22.5386 C629.9175,22.5386 630.1299,22.4405 630.2607,22.2771 C630.3587,22.1463 630.3914,22.0156 630.3914,21.705 L630.3914,20.6917 C630.3914,20.3811 630.3751,20.2831 630.2934,20.1523 C630.1626,19.9725 629.9501,19.8581 629.705,19.8581 C629.4762,19.8581 629.3291,19.9235 629.1656,20.136 C628.2994,19.7601 627.9725,19.6783 627.2697,19.6783 C625.3084,19.6783 623.8047,21.1657 623.8047,23.1106 L623.8047,23.9115 Z " fill="#000000"/><text fill="#000000" font-family="sans-serif" font-size="12.5523" lengthAdjust="spacing" textLength="69.7034" x="646.8096" y="27.8829">Component</text><line style="stroke:#181818;stroke-width:0.523;" x1="588.9121" x2="743.7238" y1="38.7029" y2="38.7029"/><text fill="#000000" font-family="sans-serif" font-size="12.5523" lengthAdjust="spacing" textLength="47.8748" x="594.1423" y="56.3055">Task file</text><line style="stroke:#181818;stroke-width:0.523;" x1="588.9121" x2="743.7238" y1="64.1675" y2="64.1675"/><text fill="#000000" font-family="sans-serif" font-size="12.5523" lengthAdjust="spacing" textLength="25.7199" x="594.1423" y="81.7701">Role</text></g><!--reverse link Landscape to Type--><g class="link" data-entity-1="Landscape" data-entity-2="Type" data-source-line="1" data-uid="lnk4" id="link_Landscape_Type"><path codeLine="1" d="M176.9456,48.4833 C189.0586,48.4833 188.6297,48.4833 200.7427,48.4833" fill="none" id="Landscape-backto-Type" style="stroke:#181818;stroke-width:1.046;"/><polygon fill="#181818" points="164.3933,48.4833,170.6695,52.6674,176.9456,48.4833,170.6695,44.2992,164.3933,48.4833" style="stroke:#181818;stroke-width:1.046;"/></g><!--reverse link Type to Function--><g class="link" data-entity-1="Type" data-entity-2="Function" data-source-line="2" data-uid="lnk6" id="link_Type_Function"><path codeLine="2" d="M370.4603,48.4833 C382.5732,48.4833 382.1444,48.4833 394.2573,48.4833" fill="none" id="Type-backto-Function" style="stroke:#181818;stroke-width:1.046;"/><polygon fill="#181818" points="357.9079,48.4833,364.1841,52.6674,370.4603,48.4833,364.1841,44.2992,357.9079,48.4833" style="stroke:#181818;stroke-width:1.046;"/></g><!--reverse link Function to Component--><g class="link" data-entity-1="Function" data-entity-2="Component" data-source-line="3" data-uid="lnk8" id="link_Function_Component"><path codeLine="3" d="M563.9749,48.4833 C576.0879,48.4833 575.659,48.4833 587.772,48.4833" fill="none" id="Function-backto-Component" style="stroke:#181818;stroke-width:1.046;"/><polygon fill="#181818" points="551.4226,48.4833,557.6987,52.6674,563.9749,48.4833,557.6987,44.2992,551.4226,48.4833" style="stroke:#181818;stroke-width:1.046;"/></g><!--SRC=[RP31QiCm343FyrVek8sEjODkbz930pdbKBP0ZiEDbSR4jepj4BAIVrzScYmRknXPydkId74ZVCajmkCJvBr55ezuILjJ1ac6JK5C9gGj6JI1bOfx3zcCxtPmdwt8bRKK3x3VmuNTNIg9IWnGa6igHTsOqHXg6bD7nViJKGDKWRt5dWqtxNM6QCn78pTdd8mJjZ1zpjGyQ2JJLOzgx3cHxwJmNsfUQJbnpdq3bVo5N0q36_T3G6r33nhr2PrdumyeXBVj6ZefGiry8utbZckujZZmiZaxQer8I963eaOUde_K2NG7rUBYlPOcYKWHFR3Phl-wKZBXGtuXR5uN9O4LRrNuARvy0m00]--></g></svg>