<svg xmlns="http://www.w3.org/2000/svg" xmlns:xlink="http://www.w3.org/1999/xlink" contentStyleType="text/css" data-diagram-type="CLASS" height="96.2343px" preserveAspectRatio="none" style="width:751px;height:96px;background:#FFFFFF;" version="1.1" viewBox="0 0 751 96" width="751.046px" zoomAndPan="magnify"><defs><linearGradient id="gt5w2qha1qldj0" x1="0%" x2="100%" y1="0%" y2="100%"><stop offset="0%" stop-color="#F5DEB3"/><stop offset="100%" stop-color="#B0E0E6"/></linearGradient></defs><g><!--class Landscape--><g class="entity" data-entity="Landscape" data-source-line="1" data-uid="ent0002" id="entity_Landscape"><rect fill="url(#gt5w2qha1qldj0)" height="82.3099" rx="2.6151" ry="2.6151" style="stroke:#181818;stroke-width:0.523;" width="156.9038" x="7.3222" y="7.3222"/><rect fill="url(#gt5w2qha1qldj0)" height="31.3808" rx="2.6151" ry="2.6151" style="stroke:url(#gt5w2qha1qldj0);stroke-width:0.523;" width="156.9038" x="7.3222" y="7.3222"/><rect fill="url(#gt5w2qha1qldj0)" height="2.6151" style="stroke:url(#gt5w2qha1qldj0);stroke-width:0.523;" width="156.9038" x="7.3222" y="36.0879"/><rect fill="none" height="82.3099" rx="2.6151" ry="2.6151" style="stroke:#181818;stroke-width:0.523;" width="156.9038" x="7.3222" y="7.3222"/><ellipse cx="50.113" cy="23.0126" fill="#DA70D6" rx="10.4603" ry="10.4603" style="stroke:#181818;stroke-width:1.046;"/><path d="M47.9882,28.2427 L47.9882,19.0246 L49.4592,19.0246 L49.4592,26.9678 L53.0386,26.9678 L53.0386,28.2427 L47.9882,28.2427 Z " fill="#000000"/><text fill="#000000" font-family="sans-serif" font-size="12.5523" lengthAdjust="spacing" textLength="62.9753" x="69.9661" y="27.8829">Landscape</text><line style="stroke:#181818;stroke-width:0.523;" x1="8.3682" x2="163.1799" y1="38.7029" y2="38.7029"/><text fill="#000000" font-family="sans-serif" font-size="12.5523" lengthAdjust="spacing" textLength="56.172" x="13.5983" y="56.3055">Workflow</text><line style="stroke:#181818;stroke-width:0.523;" x1="8.3682" x2="163.1799" y1="64.1675" y2="64.1675"/><text fill="#000000" font-family="sans-serif" font-size="12.5523" lengthAdjust="spacing" textLength="132.3524" x="13.5983" y="81.7701">Playbook of playbooks</text></g><!--class Type--><g class="entity" data-entity="Type" data-source-line="1" data-uid="ent0003" id="entity_Type"><rect fill="url(#gt5w2qha1qldj0)" height="82.3099" rx="2.6151" ry="2.6151" style="stroke:#181818;stroke-width:0.523;" width="156.9038" x="200.8368" y="7.3222"/><rect fill="url(#gt5w2qha1qldj0)" height="31.3808" rx="2.6151" ry="2.6151" style="stroke:url(#gt5w2qha1qldj0);stroke-width:0.523;" width="156.9038" x="200.8368" y="7.3222"/><rect fill="url(#gt5w2qha1qldj0)" height="2.6151" style="stroke:url(#gt5w2qha1qldj0);stroke-width:0.523;" width="156.9038" x="200.8368" y="36.0879"/><rect fill="none" height="82.3099" rx="2.6151" ry="2.6151" style="stroke:#181818;stroke-width:0.523;" width="156.9038" x="200.8368" y="7.3222"/><ellipse cx="261.0145" cy="23.0126" fill="#FFA500" rx="10.4603" ry="10.4603" style="stroke:#181818;stroke-width:1.046;"/><path d="M260.3771,28.5042 L260.3771,20.5446 L258.3014,20.5446 L258.3014,19.2861 L263.9401,19.2861 L263.9401,20.5446 L261.8644,20.5446 L261.8644,28.5042 L260.3771,28.5042 Z " fill="#000000"/><text fill="#000000" font-family="sans-serif" font-size="12.5523" lengthAdjust="spacing" textLength="28.1801" x="280.889" y="27.8829">Type</text><line style="stroke:#181818;stroke-width:0.523;" x1="201.8828" x2="356.6946" y1="38.7029" y2="38.7029"/><text fill="#000000" font-family="sans-serif" font-size="12.5523" lengthAdjust="spacing" textLength="53.8874" x="207.113" y="56.3055">Playbook</text><line style="stroke:#181818;stroke-width:0.523;" x1="201.8828" x2="356.6946" y1="64.1675" y2="64.1675"/><text fill="#000000" font-family="sans-serif" font-size="12.5523" lengthAdjust="spacing" textLength="5.5733" x="207.113" y="81.7701">_</text></g><!--class Function--><g class="entity" data-entity="Function" data-source-line="2" data-uid="ent0005" id="entity_Function"><rect fill="url(#gt5w2qha1qldj0)" height="82.3099" rx="2.6151" ry="2.6151" style="stroke:#181818;stroke-width:0.523;" width="156.9038" x="394.3515" y="7.3222"/><rect fill="url(#gt5w2qha1qldj0)" height="31.3808" rx="2.6151" ry="2.6151" style="stroke:url(#gt5w2qha1qldj0);stroke-width:0.523;" width="156.9038" x="394.3515" y="7.3222"/><rect fill="url(#gt5w2qha1qldj0)" height="2.6151" style="stroke:url(#gt5w2qha1qldj0);stroke-width:0.523;" width="156.9038" x="394.3515" y="36.0879"/><rect fill="none" height="82.3099" rx="2.6151" ry="2.6151" style="stroke:#181818;stroke-width:0.523;" width="156.9038" x="394.3515" y="7.3222"/><ellipse cx="443.0312" cy="23.0126" fill="#FFFF00" rx="10.4603" ry="10.4603" style="stroke:#181818;stroke-width:1.046;"/><path d="M440.9065,28.2427 L440.9065,19.0246 L445.8914,19.0246 L445.8914,20.2831 L442.3774,20.2831 L442.3774,22.8001 L445.0579,22.8001 L445.0579,24.0749 L442.3774,24.0749 L442.3774,28.2427 L440.9065,28.2427 Z " fill="#000000"/><text fill="#000000" font-family="sans-serif" font-size="12.5523" lengthAdjust="spacing" textLength="51.1761" x="462.9057" y="27.8829">Function</text><line style="stroke:#181818;stroke-width:0.523;" x1="395.3975" x2="550.2092" y1="38.7029" y2="38.7029"/><text fill="#000000" font-family="sans-serif" font-size="12.5523" lengthAdjust="spacing" textLength="25.7199" x="400.6276" y="56.3055">Role</text><line style="stroke:#181818;stroke-width:0.523;" x1="395.3975" x2="550.2092" y1="64.1675" y2="64.1675"/><text fill="#000000" font-family="sans-serif" font-size="12.5523" lengthAdjust="spacing" textLength="5.5733" x="400.6276" y="81.7701">_</text></g><!--class Component--><g class="entity" data-entity="Component" data-source-line="3" data-uid="ent0007" id="entity_Component"><rect fill="url(#gt5w2qha1qldj0)" height="82.3099" rx="2.6151" ry="2.6151" style="stroke:#181818;stroke-width:0.523;" width="156.9038" x="587.8661" y="7.3222"/><rect fill="url(#gt5w2qha1qldj0)" height="31.3808" rx="2.6151" ry="2.6151" style="stroke:url(#gt5w2qha1qldj0);stroke-width:0.523;" width="156.9038" x="587.8661" y="7.3222"/><rect fill="url(#gt5w2qha1qldj0)" height="2.6151" style="stroke:url(#gt5w2qha1qldj0);stroke-width:0.523;" width="156.9038" x="587.8661" y="36.0879"/><rect fill="none" height="82.3099" rx="2.6151" ry="2.6151" style="stroke:#181818;stroke-width:0.523;" width="156.9038" x="587.8661" y="7.3222"/><ellipse cx="627.6293" cy="23.0126" fill="#ADD1B2" rx="10.4603" ry="10.4603" style="stroke:#181818;stroke-width:1.046;"/><path d="M627.6947,28.3407 Q627.3187,28.3407 626.9428,28.2754 Q626.5669,28.21 626.2237,28.0465 Q625.8968,27.8831 625.6189,27.6216 Q625.3574,27.3438 625.1777,27.0005 Q625.0142,26.6573 624.9488,26.2977 Q624.8835,25.9218 624.8835,25.5459 L624.8835,21.7214 Q624.8835,21.3454 624.9488,20.9695 Q625.0142,20.5936 625.1777,20.2667 Q625.3574,19.9235 625.6189,19.662 Q625.8968,19.3842 626.2237,19.2207 Q626.5669,19.0409 626.9428,18.9755 Q627.3187,18.9102 627.6947,18.9102 Q628.0542,18.9102 628.3974,18.9755 Q628.7407,19.0246 629.0676,19.1553 Q629.3944,19.2861 629.6723,19.5149 Q629.9501,19.7274 630.1299,20.0216 Q630.3261,20.3158 630.4078,20.659 Q630.5058,20.9859 630.5058,21.3454 L630.5058,21.3945 L629.0185,21.3945 L629.0185,21.3618 Q629.0185,21.1166 628.9205,20.8878 Q628.8224,20.6427 628.6263,20.4792 Q628.4301,20.3158 628.185,20.2504 Q627.9398,20.185 627.6947,20.185 Q627.4005,20.185 627.1226,20.2994 Q626.8611,20.4138 626.6813,20.6427 Q626.5015,20.8551 626.4362,21.1493 Q626.3708,21.4272 626.3708,21.7214 L626.3708,25.5459 Q626.3708,25.8401 626.4362,26.1179 Q626.5015,26.3958 626.6813,26.6246 Q626.8611,26.8534 627.1226,26.9678 Q627.4005,27.0822 627.6947,27.0822 Q627.9398,27.0822 628.185,27.0169 Q628.4301,26.9515 628.6263,26.788 Q628.8224,26.6246 628.9205,26.3958 Q629.0185,26.1506 629.0185,25.8891 L629.0185,25.8728 L630.5058,25.8728 L630.5058,25.9218 Q630.5058,26.265 630.4078,26.6083 Q630.3261,26.9515 630.1299,27.2457 Q629.9501,27.5399 629.6723,27.7687 Q629.3944,27.9812 629.0676,28.1119 Q628.7407,28.2427 628.3974,28.2917 Q628.0542,28.3407 627.6947,28.3407 Z " fill="#000000"/><text fill="#000000" font-family="sans-serif" font-size="12.5523" lengthAdjust="spacing" textLength="69.7034" x="646.8096" y="27.8829">Component</text><line style="stroke:#181818;stroke-width:0.523;" x1="588.9121" x2="743.7238" y1="38.7029" y2="38.7029"/><text fill="#000000" font-family="sans-serif" font-size="12.5523" lengthAdjust="spacing" textLength="47.8748" x="594.1423" y="56.3055">Task file</text><line style="stroke:#181818;stroke-width:0.523;" x1="588.9121" x2="743.7238" y1="64.1675" y2="64.1675"/><text fill="#000000" font-family="sans-serif" font-size="12.5523" lengthAdjust="spacing" textLength="25.7199" x="594.1423" y="81.7701">Role</text></g><!--reverse link Landscape to Type--><g class="link" data-entity-1="Landscape" data-entity-2="Type" data-source-line="1" data-uid="lnk4" id="link_Landscape_Type"><path codeLine="1" d="M176.9456,48.4833 C189.0586,48.4833 188.6297,48.4833 200.7427,48.4833" fill="none" id="Landscape-backto-Type" style="stroke:#181818;stroke-width:1.046;"/><polygon fill="#181818" points="164.3933,48.4833,170.6695,52.6674,176.9456,48.4833,170.6695,44.2992,164.3933,48.4833" style="stroke:#181818;stroke-width:1.046;"/></g><!--reverse link Type to Function--><g class="link" data-entity-1="Type" data-entity-2="Function" data-source-line="2" data-uid="lnk6" id="link_Type_Function"><path codeLine="2" d="M370.4603,48.4833 C382.5732,48.4833 382.1444,48.4833 394.2573,48.4833" fill="none" id="Type-backto-Function" style="stroke:#181818;stroke-width:1.046;"/><polygon fill="#181818" points="357.9079,48.4833,364.1841,52.6674,370.4603,48.4833,364.1841,44.2992,357.9079,48.4833" style="stroke:#181818;stroke-width:1.046;"/></g><!--reverse link Function to Component--><g class="link" data-entity-1="Function" data-entity-2="Component" data-source-line="3" data-uid="lnk8" id="link_Function_Component"><path codeLine="3" d="M563.9749,48.4833 C576.0879,48.4833 575.659,48.4833 587.772,48.4833" fill="none" id="Function-backto-Component" style="stroke:#181818;stroke-width:1.046;"/><polygon fill="#181818" points="551.4226,48.4833,557.6987,52.6674,563.9749,48.4833,557.6987,44.2992,551.4226,48.4833" style="stroke:#181818;stroke-width:1.046;"/></g><!--SRC=[RP31QiCm343FyrVek8sEjODkbz930pdbKBP0ZiEDbSR4jepj4BAIVrzScYmRknXPydkId74ZVCajmkCJvBr55ezuILjJ1ac6JK5C9gGj6JI1bOfx3zcCxtPmdwt8bRKK3x3VmuNTNIg9IWnGa6igHTsOqHXg6bD7nViJKGDKWRt5dWqtxNM6QCn78pTdd8mJjZ1zpjGyQ2JJLOzgx3cHxwJmNsfUQJbnpdq3bVo5N0q36_T3G6r33nhr2PrdumyeXBVj6ZefGiry8utbZckujZZmiZaxQer8I963eaOUde_K2NG7rUBYlPOcYKWHFR3Phl-wKZBXGtuXR5uN9O4LRrNuARvy0m00]--></g></svg>