<?xml version="1.0" encoding="us-ascii" standalone="no"?><svg xmlns="http://www.w3.org/2000/svg" xmlns:xlink="http://www.w3.org/1999/xlink" contentStyleType="text/css" height="96.2343px" preserveAspectRatio="none" style="width:751px;height:96px;background:#FFFFFF;" version="1.1" viewBox="0 0 751 96" width="751.046px" zoomAndPan="magnify"><defs><linearGradient id="gt5w2qha1qldj0" x1="0%" x2="100%" y1="0%" y2="100%"><stop offset="0%" stop-color="#F5DEB3"/><stop offset="100%" stop-color="#B0E0E6"/></linearGradient></defs><g><!--class Landscape--><g id="elem_Landscape"><rect codeLine="4" fill="url(#gt5w2qha1qldj0)" height="82.3099" id="Landscape" rx="2.6151" ry="2.6151" style="stroke:#181818;stroke-width:0.5230125523012552;" width="156.9038" x="7.3222" y="7.3222"/><rect fill="url(#gt5w2qha1qldj0)" height="31.3808" rx="2.6151" ry="2.6151" style="stroke:url(#gt5w2qha1qldj0);stroke-width:0.5230125523012552;" width="156.9038" x="7.3222" y="7.3222"/><rect fill="url(#gt5w2qha1qldj0)" height="2.6151" style="stroke:url(#gt5w2qha1qldj0);stroke-width:0.5230125523012552;" width="156.9038" x="7.3222" y="36.0879"/><rect codeLine="4" fill="none" height="82.3099" id="Landscape" rx="2.6151" ry="2.6151" style="stroke:#181818;stroke-width:0.5230125523012552;" width="156.9038" x="7.3222" y="7.3222"/><ellipse cx="50.2092" cy="23.0126" fill="#DA70D6" rx="10.4603" ry="10.4603" style="stroke:#181818;stroke-width:1.0460251046025104;"/><path d="M49.8169,20.8878 L50.4707,20.8878 C50.7649,20.8878 50.912,20.8551 51.0264,20.8061 C51.2225,20.6753 51.3533,20.4629 51.3533,20.234 C51.3533,20.0379 51.2552,19.8418 51.0754,19.7274 C50.9447,19.613 50.8303,19.5966 50.4707,19.5966 L47.7903,19.5966 C47.447,19.5966 47.3653,19.613 47.2346,19.6783 C47.0384,19.8091 46.9077,20.0052 46.9077,20.234 C46.9077,20.4465 47.0058,20.6427 47.1855,20.7571 C47.3326,20.8551 47.4634,20.8878 47.7903,20.8878 L48.4604,20.8878 L48.4604,25.3825 L47.7903,25.3825 C47.4634,25.3825 47.3653,25.3988 47.2346,25.4642 C47.0384,25.5949 46.9077,25.7911 46.9077,26.0199 C46.9077,26.4612 47.2182,26.6736 47.7903,26.6736 L53.7722,26.6736 L53.7722,24.3201 C53.7722,24.0095 53.7395,23.8951 53.6578,23.7807 C53.5434,23.5846 53.3309,23.4702 53.0858,23.4702 C52.857,23.4702 52.6772,23.5683 52.5301,23.7317 C52.432,23.8788 52.4157,23.9932 52.4157,24.3201 L52.4157,25.3825 L49.8169,25.3825 L49.8169,20.8878 Z " fill="#000000"/><text fill="#000000" font-family="sans-serif" font-size="12.5523" lengthAdjust="spacing" textLength="62.7615" x="70.0837" y="27.8829">Landscape</text><line style="stroke:#181818;stroke-width:0.5230125523012552;" x1="8.3682" x2="163.1799" y1="38.7029" y2="38.7029"/><text fill="#000000" font-family="sans-serif" font-size="12.5523" lengthAdjust="spacing" textLength="54.3933" x="13.5983" y="56.3055">Workflow</text><line style="stroke:#181818;stroke-width:0.5230125523012552;" x1="8.3682" x2="163.1799" y1="64.1675" y2="64.1675"/><text fill="#000000" font-family="sans-serif" font-size="12.5523" lengthAdjust="spacing" textLength="128.6611" x="13.5983" y="81.7701">Playbook of playbooks</text></g><!--class Type--><g id="elem_Type"><rect codeLine="8" fill="url(#gt5w2qha1qldj0)" height="82.3099" id="Type" rx="2.6151" ry="2.6151" style="stroke:#181818;stroke-width:0.5230125523012552;" width="156.9038" x="200.8368" y="7.3222"/><rect fill="url(#gt5w2qha1qldj0)" height="31.3808" rx="2.6151" ry="2.6151" style="stroke:url(#gt5w2qha1qldj0);stroke-width:0.5230125523012552;" width="156.9038" x="200.8368" y="7.3222"/><rect fill="url(#gt5w2qha1qldj0)" height="2.6151" style="stroke:url(#gt5w2qha1qldj0);stroke-width:0.5230125523012552;" width="156.9038" x="200.8368" y="36.0879"/><rect codeLine="8" fill="none" height="82.3099" id="Type" rx="2.6151" ry="2.6151" style="stroke:#181818;stroke-width:0.5230125523012552;" width="156.9038" x="200.8368" y="7.3222"/><ellipse cx="260.9833" cy="23.0126" fill="#FFA500" rx="10.4603" ry="10.4603" style="stroke:#181818;stroke-width:1.0460251046025104;"/><path d="M261.7514,21.4108 L263.0263,21.4108 L263.0263,22.4569 C263.0263,22.7674 263.0426,22.8981 263.1243,22.9962 C263.2388,23.2087 263.4676,23.3231 263.6964,23.3231 C263.9089,23.3231 264.105,23.225 264.2521,23.0616 C264.3502,22.9145 264.3828,22.8164 264.3828,22.4569 L264.3828,20.1196 L257.7962,20.1196 L257.7962,22.4569 C257.7962,22.7674 257.8288,22.8981 257.8942,22.9962 C258.025,23.2087 258.2538,23.3231 258.4826,23.3231 C258.6951,23.3231 258.8912,23.225 259.022,23.0616 C259.1364,22.9145 259.1527,22.8164 259.1527,22.4569 L259.1527,21.4108 L260.3949,21.4108 L260.3949,25.9055 L259.6267,25.9055 C259.2998,25.9055 259.2018,25.9218 259.0873,25.9872 C258.8749,26.1179 258.7605,26.3304 258.7605,26.5429 C258.7605,26.739 258.8585,26.9515 259.022,27.0659 C259.1527,27.164 259.3488,27.1967 259.6267,27.1967 L262.536,27.1967 C263.108,27.1967 263.4022,26.9842 263.4022,26.5429 C263.4022,26.3468 263.3041,26.1506 263.1407,26.0362 C262.9936,25.9218 262.8628,25.9055 262.536,25.9055 L261.7514,25.9055 L261.7514,21.4108 Z " fill="#000000"/><text fill="#000000" font-family="sans-serif" font-size="12.5523" lengthAdjust="spacing" textLength="28.2427" x="280.8577" y="27.8829">Type</text><line style="stroke:#181818;stroke-width:0.5230125523012552;" x1="201.8828" x2="356.6946" y1="38.7029" y2="38.7029"/><text fill="#000000" font-family="sans-serif" font-size="12.5523" lengthAdjust="spacing" textLength="52.3013" x="207.113" y="56.3055">Playbook</text><line style="stroke:#181818;stroke-width:0.5230125523012552;" x1="201.8828" x2="356.6946" y1="64.1675" y2="64.1675"/><text fill="#000000" font-family="sans-serif" font-size="12.5523" lengthAdjust="spacing" textLength="5.2301" x="207.113" y="81.7701">_</text></g><!--class Function--><g id="elem_Function"><rect codeLine="12" fill="url(#gt5w2qha1qldj0)" height="82.3099" id="Function" rx="2.6151" ry="2.6151" style="stroke:#181818;stroke-width:0.5230125523012552;" width="156.9038" x="394.3515" y="7.3222"/><rect fill="url(#gt5w2qha1qldj0)" height="31.3808" rx="2.6151" ry="2.6151" style="stroke:url(#gt5w2qha1qldj0);stroke-width:0.5230125523012552;" width="156.9038" x="394.3515" y="7.3222"/><rect fill="url(#gt5w2qha1qldj0)" height="2.6151" style="stroke:url(#gt5w2qha1qldj0);stroke-width:0.5230125523012552;" width="156.9038" x="394.3515" y="36.0879"/><rect codeLine="12" fill="none" height="82.3099" id="Function" rx="2.6151" ry="2.6151" style="stroke:#181818;stroke-width:0.5230125523012552;" width="156.9038" x="394.3515" y="7.3222"/><ellipse cx="444.0377" cy="23.0126" fill="#FFFF00" rx="10.4603" ry="10.4603" style="stroke:#181818;stroke-width:1.0460251046025104;"/><path d="M442.8609,23.7644 L443.8252,23.7644 L443.8252,23.7971 C443.8252,24.0913 443.8579,24.222 443.9232,24.3364 C444.0377,24.5326 444.2665,24.647 444.4953,24.647 C444.7078,24.647 444.9039,24.5489 445.051,24.3855 C445.1491,24.2547 445.1654,24.1403 445.1654,23.7971 L445.1654,22.4569 C445.1654,22.1463 445.1654,22.0482 445.0673,21.9175 C444.9529,21.7214 444.7241,21.607 444.4953,21.607 C444.2828,21.607 444.0867,21.705 443.9559,21.8685 C443.8579,21.9992 443.8252,22.13 443.8252,22.4569 L443.8252,22.4732 L442.8609,22.4732 L442.8609,20.8878 L445.9826,20.8878 L445.9826,21.4599 C445.9826,21.7377 445.999,21.8685 446.0807,21.9829 C446.1951,22.179 446.4076,22.2934 446.6527,22.2934 C446.8652,22.2934 447.0613,22.1953 447.2084,22.0319 C447.3065,21.8848 447.3228,21.7704 447.3228,21.4599 L447.3228,19.5966 L441.3736,19.5966 C441.0467,19.5966 440.9486,19.613 440.8179,19.6783 C440.6217,19.8091 440.491,20.0216 440.491,20.234 C440.491,20.4465 440.6054,20.6427 440.7688,20.7571 C440.8996,20.8551 441.0467,20.8878 441.3736,20.8878 L441.5043,20.8878 L441.5043,25.3825 L441.3736,25.3825 C441.0467,25.3825 440.9486,25.3988 440.8179,25.4642 C440.6217,25.5949 440.491,25.8074 440.491,26.0199 C440.491,26.4448 440.7852,26.6736 441.3736,26.6736 L444.0703,26.6736 C444.6424,26.6736 444.9529,26.4612 444.9529,26.0199 C444.9529,25.8237 444.8385,25.6276 444.6751,25.5132 C444.528,25.3988 444.4136,25.3825 444.0703,25.3825 L442.8609,25.3825 L442.8609,23.7644 Z " fill="#000000"/><text fill="#000000" font-family="sans-serif" font-size="12.5523" lengthAdjust="spacing" textLength="49.1632" x="463.9121" y="27.8829">Function</text><line style="stroke:#181818;stroke-width:0.5230125523012552;" x1="395.3975" x2="550.2092" y1="38.7029" y2="38.7029"/><text fill="#000000" font-family="sans-serif" font-size="12.5523" lengthAdjust="spacing" textLength="25.1046" x="400.6276" y="56.3055">Role</text><line style="stroke:#181818;stroke-width:0.5230125523012552;" x1="395.3975" x2="550.2092" y1="64.1675" y2="64.1675"/><text fill="#000000" font-family="sans-serif" font-size="12.5523" lengthAdjust="spacing" textLength="5.2301" x="400.6276" y="81.7701">_</text></g><!--class Component--><g id="elem_Component"><rect codeLine="16" fill="url(#gt5w2qha1qldj0)" height="82.3099" id="Component" rx="2.6151" ry="2.6151" style="stroke:#181818;stroke-width:0.5230125523012552;" width="156.9038" x="587.8661" y="7.3222"/><rect fill="url(#gt5w2qha1qldj0)" height="31.3808" rx="2.6151" ry="2.6151" style="stroke:url(#gt5w2qha1qldj0);stroke-width:0.5230125523012552;" width="156.9038" x="587.8661" y="7.3222"/><rect fill="url(#gt5w2qha1qldj0)" height="2.6151" style="stroke:url(#gt5w2qha1qldj0);stroke-width:0.5230125523012552;" width="156.9038" x="587.8661" y="36.0879"/><rect codeLine="16" fill="none" height="82.3099" id="Component" rx="2.6151" ry="2.6151" style="stroke:#181818;stroke-width:0.5230125523012552;" width="156.9038" x="587.8661" y="7.3222"/><ellipse cx="628.3996" cy="23.0126" fill="#ADD1B2" rx="10.4603" ry="10.4603" style="stroke:#181818;stroke-width:1.0460251046025104;"/><path d="M624.5751,23.9115 C624.5751,25.7584 626.1604,27.0986 628.3179,27.0986 C629.2331,27.0986 630.0994,26.8698 630.6551,26.4939 C631.1127,26.1833 631.3415,25.8728 631.3415,25.5786 C631.3415,25.2354 631.031,24.9248 630.6714,24.9248 C630.4916,24.9248 630.3282,24.9902 630.1811,25.1373 C629.8542,25.4478 629.8542,25.4478 629.7235,25.5296 C629.3966,25.7093 628.9226,25.8074 628.3505,25.8074 C626.8796,25.8074 625.9316,25.0556 625.9316,23.8788 L625.9316,23.127 C625.9316,21.8685 626.8469,20.9695 628.089,20.9695 C628.514,20.9695 628.9553,21.0676 629.2822,21.2637 C629.6417,21.4435 629.7561,21.5906 629.8215,21.8685 C629.9032,22.3588 630.083,22.5386 630.4753,22.5386 C630.6878,22.5386 630.9002,22.4405 631.031,22.2771 C631.1291,22.1463 631.1617,22.0156 631.1617,21.705 L631.1617,20.6917 C631.1617,20.3811 631.1454,20.2831 631.0637,20.1523 C630.9329,19.9725 630.7204,19.8581 630.4753,19.8581 C630.2465,19.8581 630.0994,19.9235 629.9359,20.136 C629.0697,19.7601 628.7428,19.6783 628.04,19.6783 C626.0787,19.6783 624.5751,21.1657 624.5751,23.1106 L624.5751,23.9115 Z " fill="#000000"/><text fill="#000000" font-family="sans-serif" font-size="12.5523" lengthAdjust="spacing" textLength="67.9916" x="647.751" y="27.8829">Component</text><line style="stroke:#181818;stroke-width:0.5230125523012552;" x1="588.9121" x2="743.7238" y1="38.7029" y2="38.7029"/><text fill="#000000" font-family="sans-serif" font-size="12.5523" lengthAdjust="spacing" textLength="48.1172" x="594.1423" y="56.3055">Task file</text><line style="stroke:#181818;stroke-width:0.5230125523012552;" x1="588.9121" x2="743.7238" y1="64.1675" y2="64.1675"/><text fill="#000000" font-family="sans-serif" font-size="12.5523" lengthAdjust="spacing" textLength="25.1046" x="594.1423" y="81.7701">Role</text></g><!--reverse link Landscape to Type--><g id="link_Landscape_Type"><path codeLine="1" d="M176.9456,48.4833 C189.0586,48.4833 188.6297,48.4833 200.7427,48.4833 " fill="none" id="Landscape-backto-Type" style="stroke:#181818;stroke-width:1.0460251046025104;"/><polygon fill="#181818" points="164.3933,48.4833,170.6695,52.6674,176.9456,48.4833,170.6695,44.2992,164.3933,48.4833" style="stroke:#181818;stroke-width:1.0460251046025104;"/></g><!--reverse link Type to Function--><g id="link_Type_Function"><path codeLine="2" d="M370.4603,48.4833 C382.5732,48.4833 382.1444,48.4833 394.2573,48.4833 " fill="none" id="Type-backto-Function" style="stroke:#181818;stroke-width:1.0460251046025104;"/><polygon fill="#181818" points="357.9079,48.4833,364.1841,52.6674,370.4603,48.4833,364.1841,44.2992,357.9079,48.4833" style="stroke:#181818;stroke-width:1.0460251046025104;"/></g><!--reverse link Function to Component--><g id="link_Function_Component"><path codeLine="3" d="M563.9749,48.4833 C576.0879,48.4833 575.659,48.4833 587.772,48.4833 " fill="none" id="Function-backto-Component" style="stroke:#181818;stroke-width:1.0460251046025104;"/><polygon fill="#181818" points="551.4226,48.4833,557.6987,52.6674,563.9749,48.4833,557.6987,44.2992,551.4226,48.4833" style="stroke:#181818;stroke-width:1.0460251046025104;"/></g><!--SRC=[RP31QiCm343FyrVek8sEjODkbz930pdbKBP0ZiEDbSR4jepj4BAIVrzScYmRknXPydkId74ZVCajmkCJvBr55ezuILjJ1ac6JK5C9gGj6JI1bOfx3zcCxtPmdwt8bRKK3x3VmuNTNIg9IWnGa6igHTsOqHXg6bD7nViJKGDKWRt5dWqtxNM6QCn78pTdd8mJjZ1zpjGyQ2JJLOzgx3cHxwJmNsfUQJbnpdq3bVo5N0q36_T3G6r33nhr2PrdumyeXBVj6ZefGiry8utbZckujZZmiZaxQer8I963eaOUde_K2NG7rUBYlPOcYKWHFR3Phl-wKZBXGtuXR5uN9O4LRrNuARvy0m00]--></g></svg>