<svg xmlns="http://www.w3.org/2000/svg" xmlns:xlink="http://www.w3.org/1999/xlink" contentStyleType="text/css" data-diagram-type="ACTIVITY" height="491px" preserveAspectRatio="none" style="width:348px;height:491px;background:#FFFFFF;" version="1.1" viewBox="0 0 348 491" width="348px" zoomAndPan="magnify"><defs/><g><ellipse cx="183.3428" cy="20" fill="#222222" rx="10" ry="10" style="stroke:#222222;stroke-width:1;"/><line style="stroke:#181818;stroke-width:1.5;" x1="132.0546" x2="300.3975" y1="50" y2="50"/><line style="stroke:#181818;stroke-width:1.5;" x1="61.0563" x2="196.1109" y1="70" y2="70"/><rect fill="#F1F1F1" height="36.3441" rx="12.5" ry="12.5" style="stroke:#181818;stroke-width:0.5;" width="90.8005" x="15.656" y="90"/><text fill="#000000" font-family="sans-serif" font-size="12" lengthAdjust="spacing" textLength="70.8005" x="25.656" y="112.8281">role defaults</text><rect fill="#F1F1F1" height="36.3441" rx="12.5" ry="12.5" style="stroke:#181818;stroke-width:0.5;" width="100.1126" x="11" y="161.3441"/><text fill="#000000" font-family="sans-serif" font-size="12" lengthAdjust="spacing" textLength="80.1126" x="21" y="184.1722">inventory vars</text><rect fill="#F1F1F1" height="36.3441" rx="12.5" ry="12.5" style="stroke:#181818;stroke-width:0.5;" width="68.7324" x="26.6901" y="232.6882"/><text fill="#000000" font-family="sans-serif" font-size="12" lengthAdjust="spacing" textLength="48.7324" x="36.6901" y="255.5163">role vars</text><rect fill="#F1F1F1" height="52.6882" rx="12.5" ry="12.5" style="stroke:#181818;stroke-width:0.5;" width="89.3644" x="151.4287" y="109.3279"/><text fill="#000000" font-family="sans-serif" font-size="12" lengthAdjust="spacing" textLength="66.9485" x="161.4287" y="132.156">scoped vars</text><text fill="#000000" font-family="sans-serif" font-size="12" lengthAdjust="spacing" textLength="29.9042" x="161.4287" y="148.5001">block</text><path d="M200.4529,142.0162 L200.4529,144.0162 L195.4529,144.0162 L195.4529,145.0162 L200.4529,145.0162 L200.4529,147.0162 L203.4529,144.4862 L200.4529,142.0162" fill="#000000"/><text fill="#000000" font-family="sans-serif" font-size="12" lengthAdjust="spacing" textLength="23.2202" x="207.573" y="148.5001">task</text><rect fill="#F1F1F1" height="52.6882" rx="12.5" ry="12.5" style="stroke:#181818;stroke-width:0.5;" width="113.9967" x="139.1126" y="197.0162"/><text fill="#000000" font-family="sans-serif" font-size="12" lengthAdjust="spacing" textLength="71.8565" x="149.1126" y="219.8443">runtime vars</text><text fill="#000000" font-family="sans-serif" font-size="12" lengthAdjust="spacing" textLength="93.9967" x="149.1126" y="236.1884">set_fact+register</text><line style="stroke:#181818;stroke-width:1.5;" x1="61.0563" x2="196.1109" y1="289.0323" y2="289.0323"/><rect fill="#F1F1F1" height="52.6882" rx="12.5" ry="12.5" style="stroke:#181818;stroke-width:0.5;" width="106.1846" x="78.9623" y="309.0323"/><text fill="#000000" font-family="sans-serif" font-size="12" lengthAdjust="spacing" textLength="86.1846" x="88.9623" y="331.8604">scoped params</text><text fill="#000000" font-family="sans-serif" font-size="12" lengthAdjust="spacing" textLength="22.0802" x="88.9623" y="348.2045">role</text><path d="M120.1625,341.7206 L120.1625,343.7206 L115.1625,343.7206 L115.1625,344.7206 L120.1625,344.7206 L120.1625,346.7206 L123.1625,344.1906 L120.1625,341.7206" fill="#000000"/><text fill="#000000" font-family="sans-serif" font-size="12" lengthAdjust="spacing" textLength="40.9323" x="127.2825" y="348.2045">include</text><rect fill="#F1F1F1" height="36.3441" rx="12.5" ry="12.5" style="stroke:#181818;stroke-width:0.5;" width="74.5764" x="263.1093" y="205.1882"/><text fill="#000000" font-family="sans-serif" font-size="12" lengthAdjust="spacing" textLength="54.5764" x="273.1093" y="228.0163">host facts</text><line style="stroke:#181818;stroke-width:1.5;" x1="132.0546" x2="300.3975" y1="381.7206" y2="381.7206"/><rect fill="#F1F1F1" height="36.3441" rx="12.5" ry="12.5" style="stroke:#181818;stroke-width:0.5;" width="75.7884" x="145.4486" y="401.7206"/><text fill="#000000" font-family="sans-serif" font-size="12" lengthAdjust="spacing" textLength="55.7884" x="155.4486" y="424.5487">extra vars</text><ellipse cx="183.3428" cy="469.0647" fill="none" rx="11" ry="11" style="stroke:#222222;stroke-width:1;"/><ellipse cx="183.3428" cy="469.0647" fill="#222222" rx="6" ry="6" style="stroke:#222222;stroke-width:1;"/><line style="stroke:#181818;stroke-width:1;" x1="61.0563" x2="61.0563" y1="126.3441" y2="161.3441"/><polygon fill="#181818" points="57.0563,151.3441,61.0563,161.3441,65.0563,151.3441,61.0563,155.3441" style="stroke:#181818;stroke-width:1;"/><line style="stroke:#181818;stroke-width:1;" x1="61.0563" x2="61.0563" y1="197.6882" y2="232.6882"/><polygon fill="#181818" points="57.0563,222.6882,61.0563,232.6882,65.0563,222.6882,61.0563,226.6882" style="stroke:#181818;stroke-width:1;"/><line style="stroke:#181818;stroke-width:1;" x1="196.1109" x2="196.1109" y1="162.0162" y2="197.0162"/><polygon fill="#181818" points="192.1109,187.0162,196.1109,197.0162,200.1109,187.0162,196.1109,191.0162" style="stroke:#181818;stroke-width:1;"/><line style="stroke:#181818;stroke-width:1;" x1="61.0563" x2="61.0563" y1="71.5" y2="90"/><polygon fill="#181818" points="57.0563,80,61.0563,90,65.0563,80,61.0563,84" style="stroke:#181818;stroke-width:1;"/><line style="stroke:#181818;stroke-width:1;" x1="196.1109" x2="196.1109" y1="71.5" y2="109.3279"/><polygon fill="#181818" points="192.1109,99.3279,196.1109,109.3279,200.1109,99.3279,196.1109,103.3279" style="stroke:#181818;stroke-width:1;"/><line style="stroke:#181818;stroke-width:1;" x1="61.0563" x2="61.0563" y1="269.0323" y2="289.0323"/><polygon fill="#181818" points="57.0563,279.0323,61.0563,289.0323,65.0563,279.0323,61.0563,283.0323" style="stroke:#181818;stroke-width:1;"/><line style="stroke:#181818;stroke-width:1;" x1="196.1109" x2="196.1109" y1="249.7044" y2="289.0323"/><polygon fill="#181818" points="192.1109,279.0323,196.1109,289.0323,200.1109,279.0323,196.1109,283.0323" style="stroke:#181818;stroke-width:1;"/><line style="stroke:#181818;stroke-width:1;" x1="132.0546" x2="132.0546" y1="290.5323" y2="309.0323"/><polygon fill="#181818" points="128.0546,299.0323,132.0546,309.0323,136.0546,299.0323,132.0546,303.0323" style="stroke:#181818;stroke-width:1;"/><line style="stroke:#181818;stroke-width:1;" x1="132.0546" x2="132.0546" y1="51.5" y2="70"/><polygon fill="#181818" points="128.0546,60,132.0546,70,136.0546,60,132.0546,64" style="stroke:#181818;stroke-width:1;"/><line style="stroke:#181818;stroke-width:1;" x1="300.3975" x2="300.3975" y1="51.5" y2="205.1882"/><polygon fill="#181818" points="296.3975,195.1882,300.3975,205.1882,304.3975,195.1882,300.3975,199.1882" style="stroke:#181818;stroke-width:1;"/><line style="stroke:#181818;stroke-width:1;" x1="132.0546" x2="132.0546" y1="361.7206" y2="381.7206"/><polygon fill="#181818" points="128.0546,371.7206,132.0546,381.7206,136.0546,371.7206,132.0546,375.7206" style="stroke:#181818;stroke-width:1;"/><line style="stroke:#181818;stroke-width:1;" x1="300.3975" x2="300.3975" y1="241.5323" y2="381.7206"/><polygon fill="#181818" points="296.3975,371.7206,300.3975,381.7206,304.3975,371.7206,300.3975,375.7206" style="stroke:#181818;stroke-width:1;"/><line style="stroke:#181818;stroke-width:1;" x1="183.3428" x2="183.3428" y1="30" y2="50"/><polygon fill="#181818" points="179.3428,40,183.3428,50,187.3428,40,183.3428,44" style="stroke:#181818;stroke-width:1;"/><line style="stroke:#181818;stroke-width:1;" x1="183.3428" x2="183.3428" y1="383.2206" y2="401.7206"/><polygon fill="#181818" points="179.3428,391.7206,183.3428,401.7206,187.3428,391.7206,183.3428,395.7206" style="stroke:#181818;stroke-width:1;"/><line style="stroke:#181818;stroke-width:1;" x1="183.3428" x2="183.3428" y1="438.0647" y2="458.0647"/><polygon fill="#181818" points="179.3428,448.0647,183.3428,458.0647,187.3428,448.0647,183.3428,452.0647" style="stroke:#181818;stroke-width:1;"/><!--SRC=[NOz13i8m30JFxIjoueBuG8lu2ZA9cqPDayXs2_oUD4s5u6JjUZrQim19oyaxQPiwcewYHsLmWCKBzvlZmef18htL2hHR9LHLkLHWmOLjnJecD6MPvSD7FQdh2OZYyqBEZd9J0Zpjc2M8c_48Cyfz02rdGkjOa788Wr6rsu5EG33dV2dnXtP1-yLWt_wqwiR8eZPqBlmbTlWIWle7IqmV]--></g></svg>