<?xml version="1.0" encoding="us-ascii" standalone="no"?><svg xmlns="http://www.w3.org/2000/svg" xmlns:xlink="http://www.w3.org/1999/xlink" contentStyleType="text/css" height="491px" preserveAspectRatio="none" style="width:347px;height:491px;background:#FFFFFF;" version="1.1" viewBox="0 0 347 491" width="347px" zoomAndPan="magnify"><defs/><g><ellipse cx="182.5" cy="20" fill="#222222" rx="10" ry="10" style="stroke:#222222;stroke-width:1.0;"/><line style="stroke:#181818;stroke-width:1.5;" x1="131.5" x2="299" y1="50" y2="50"/><line style="stroke:#181818;stroke-width:1.5;" x1="60.5" x2="195" y1="70" y2="70"/><rect fill="#F1F1F1" height="36.3441" rx="12.5" ry="12.5" style="stroke:#181818;stroke-width:0.5;" width="90" x="15.5" y="90"/><text fill="#000000" font-family="sans-serif" font-size="12" lengthAdjust="spacing" textLength="70" x="25.5" y="112.8281">role defaults</text><rect fill="#F1F1F1" height="36.3441" rx="12.5" ry="12.5" style="stroke:#181818;stroke-width:0.5;" width="99" x="11" y="161.3441"/><text fill="#000000" font-family="sans-serif" font-size="12" lengthAdjust="spacing" textLength="79" x="21" y="184.1722">inventory vars</text><rect fill="#F1F1F1" height="36.3441" rx="12.5" ry="12.5" style="stroke:#181818;stroke-width:0.5;" width="69" x="26" y="232.6882"/><text fill="#000000" font-family="sans-serif" font-size="12" lengthAdjust="spacing" textLength="49" x="36" y="255.5163">role vars</text><rect fill="#F1F1F1" height="52.6882" rx="12.5" ry="12.5" style="stroke:#181818;stroke-width:0.5;" width="88" x="151" y="109.3279"/><text fill="#000000" font-family="sans-serif" font-size="12" lengthAdjust="spacing" textLength="67" x="161" y="132.156">scoped vars</text><text fill="#000000" font-family="sans-serif" font-size="12" lengthAdjust="spacing" textLength="29" x="161" y="148.5001">block</text><path d="M199,141.0162 L199,143.0162 L194,143.0162 L194,144.0162 L199,144.0162 L199,146.0162 L202,143.4862 L199,141.0162 " fill="#000000" style="stroke:;stroke-width:0.0;stroke-dasharray:;"/><text fill="#000000" font-family="sans-serif" font-size="12" lengthAdjust="spacing" textLength="23" x="206" y="148.5001">task</text><rect fill="#F1F1F1" height="52.6882" rx="12.5" ry="12.5" style="stroke:#181818;stroke-width:0.5;" width="114" x="138" y="197.0162"/><text fill="#000000" font-family="sans-serif" font-size="12" lengthAdjust="spacing" textLength="71" x="148" y="219.8443">runtime vars</text><text fill="#000000" font-family="sans-serif" font-size="12" lengthAdjust="spacing" textLength="94" x="148" y="236.1884">set_fact+register</text><line style="stroke:#181818;stroke-width:1.5;" x1="60.5" x2="195" y1="289.0323" y2="289.0323"/><rect fill="#F1F1F1" height="52.6882" rx="12.5" ry="12.5" style="stroke:#181818;stroke-width:0.5;" width="106" x="78.5" y="309.0323"/><text fill="#000000" font-family="sans-serif" font-size="12" lengthAdjust="spacing" textLength="86" x="88.5" y="331.8604">scoped params</text><text fill="#000000" font-family="sans-serif" font-size="12" lengthAdjust="spacing" textLength="22" x="88.5" y="348.2045">role</text><path d="M119.5,340.7206 L119.5,342.7206 L114.5,342.7206 L114.5,343.7206 L119.5,343.7206 L119.5,345.7206 L122.5,343.1906 L119.5,340.7206 " fill="#000000" style="stroke:;stroke-width:0.0;stroke-dasharray:;"/><text fill="#000000" font-family="sans-serif" font-size="12" lengthAdjust="spacing" textLength="40" x="126.5" y="348.2045">include</text><rect fill="#F1F1F1" height="36.3441" rx="12.5" ry="12.5" style="stroke:#181818;stroke-width:0.5;" width="74" x="262" y="205.1882"/><text fill="#000000" font-family="sans-serif" font-size="12" lengthAdjust="spacing" textLength="54" x="272" y="228.0163">host facts</text><line style="stroke:#181818;stroke-width:1.5;" x1="131.5" x2="299" y1="381.7206" y2="381.7206"/><rect fill="#F1F1F1" height="36.3441" rx="12.5" ry="12.5" style="stroke:#181818;stroke-width:0.5;" width="76" x="144.5" y="401.7206"/><text fill="#000000" font-family="sans-serif" font-size="12" lengthAdjust="spacing" textLength="56" x="154.5" y="424.5487">extra vars</text><ellipse cx="182.5" cy="469.0647" fill="none" rx="11" ry="11" style="stroke:#222222;stroke-width:1.0;"/><ellipse cx="182.5" cy="469.0647" fill="#222222" rx="6" ry="6" style="stroke:#222222;stroke-width:1.0;"/><line style="stroke:#181818;stroke-width:1.0;" x1="60.5" x2="60.5" y1="126.3441" y2="161.3441"/><polygon fill="#181818" points="56.5,151.3441,60.5,161.3441,64.5,151.3441,60.5,155.3441" style="stroke:#181818;stroke-width:1.0;"/><line style="stroke:#181818;stroke-width:1.0;" x1="60.5" x2="60.5" y1="197.6882" y2="232.6882"/><polygon fill="#181818" points="56.5,222.6882,60.5,232.6882,64.5,222.6882,60.5,226.6882" style="stroke:#181818;stroke-width:1.0;"/><line style="stroke:#181818;stroke-width:1.0;" x1="195" x2="195" y1="162.0162" y2="197.0162"/><polygon fill="#181818" points="191,187.0162,195,197.0162,199,187.0162,195,191.0162" style="stroke:#181818;stroke-width:1.0;"/><line style="stroke:#181818;stroke-width:1.0;" x1="60.5" x2="60.5" y1="71.5" y2="90"/><polygon fill="#181818" points="56.5,80,60.5,90,64.5,80,60.5,84" style="stroke:#181818;stroke-width:1.0;"/><line style="stroke:#181818;stroke-width:1.0;" x1="195" x2="195" y1="71.5" y2="109.3279"/><polygon fill="#181818" points="191,99.3279,195,109.3279,199,99.3279,195,103.3279" style="stroke:#181818;stroke-width:1.0;"/><line style="stroke:#181818;stroke-width:1.0;" x1="60.5" x2="60.5" y1="269.0323" y2="289.0323"/><polygon fill="#181818" points="56.5,279.0323,60.5,289.0323,64.5,279.0323,60.5,283.0323" style="stroke:#181818;stroke-width:1.0;"/><line style="stroke:#181818;stroke-width:1.0;" x1="195" x2="195" y1="249.7044" y2="289.0323"/><polygon fill="#181818" points="191,279.0323,195,289.0323,199,279.0323,195,283.0323" style="stroke:#181818;stroke-width:1.0;"/><line style="stroke:#181818;stroke-width:1.0;" x1="131.5" x2="131.5" y1="290.5323" y2="309.0323"/><polygon fill="#181818" points="127.5,299.0323,131.5,309.0323,135.5,299.0323,131.5,303.0323" style="stroke:#181818;stroke-width:1.0;"/><line style="stroke:#181818;stroke-width:1.0;" x1="131.5" x2="131.5" y1="51.5" y2="70"/><polygon fill="#181818" points="127.5,60,131.5,70,135.5,60,131.5,64" style="stroke:#181818;stroke-width:1.0;"/><line style="stroke:#181818;stroke-width:1.0;" x1="299" x2="299" y1="51.5" y2="205.1882"/><polygon fill="#181818" points="295,195.1882,299,205.1882,303,195.1882,299,199.1882" style="stroke:#181818;stroke-width:1.0;"/><line style="stroke:#181818;stroke-width:1.0;" x1="131.5" x2="131.5" y1="361.7206" y2="381.7206"/><polygon fill="#181818" points="127.5,371.7206,131.5,381.7206,135.5,371.7206,131.5,375.7206" style="stroke:#181818;stroke-width:1.0;"/><line style="stroke:#181818;stroke-width:1.0;" x1="299" x2="299" y1="241.5323" y2="381.7206"/><polygon fill="#181818" points="295,371.7206,299,381.7206,303,371.7206,299,375.7206" style="stroke:#181818;stroke-width:1.0;"/><line style="stroke:#181818;stroke-width:1.0;" x1="182.5" x2="182.5" y1="30" y2="50"/><polygon fill="#181818" points="178.5,40,182.5,50,186.5,40,182.5,44" style="stroke:#181818;stroke-width:1.0;"/><line style="stroke:#181818;stroke-width:1.0;" x1="182.5" x2="182.5" y1="383.2206" y2="401.7206"/><polygon fill="#181818" points="178.5,391.7206,182.5,401.7206,186.5,391.7206,182.5,395.7206" style="stroke:#181818;stroke-width:1.0;"/><line style="stroke:#181818;stroke-width:1.0;" x1="182.5" x2="182.5" y1="438.0647" y2="458.0647"/><polygon fill="#181818" points="178.5,448.0647,182.5,458.0647,186.5,448.0647,182.5,452.0647" style="stroke:#181818;stroke-width:1.0;"/><!--SRC=[NOz13i8m30JFxIjoueBuG8lu2ZA9cqPDayXs2_oUD4s5u6JjUZrQim19oyaxQPiwcewYHsLmWCKBzvlZmef18htL2hHR9LHLkLHWmOLjnJecD6MPvSD7FQdh2OZYyqBEZd9J0Zpjc2M8c_48Cyfz02rdGkjOa788Wr6rsu5EG33dV2dnXtP1-yLWt_wqwiR8eZPqBlmbTlWIWle7IqmV]--></g></svg>